<svg xmlns="http://www.w3.org/2000/svg" width="1868" height="1549" viewBox="0 0 1868 1549"><defs><style type="text/css"/></defs><g transform="translate(74.56791687011719 79.2) scale(1)"><g class="relationship"><g transform="translate(443.5936241772812 310.49935600597087) rotate(-45.00000000000001)" stroke-width="5" stroke="#000000"><path d="M 59 0 L 230.73147355953287 0"/><polygon points="-24.8621506177483,0 -27.62461179749811,9.20820393249937 0,0 -27.62461179749811,-9.20820393249937" fill="#000000" transform="translate(255.59362417728119 0) rotate(0)" stroke="none"/></g></g><g class="relationship"><g transform="translate(443.5936241772812 310.49935600597087) rotate(-21.79866411177301)" stroke-width="5" stroke="#000000"><path d="M 59 0 L 237.58331361511316 0"/><polygon points="-24.8621506177483,0 -27.62461179749811,9.20820393249937 0,0 -27.62461179749811,-9.20820393249937" fill="#000000" transform="translate(262.44546423286147 0) rotate(0)" stroke="none"/></g></g><g class="relationship"><g transform="translate(443.5936241772812 310.49935600597087) rotate(5.375457171575181e-7)" stroke-width="5" stroke="#000000"><path d="M 59 0 L 237.58331361511316 0"/><polygon points="-24.8621506177483,0 -27.62461179749811,9.20820393249937 0,0 -27.62461179749811,-9.20820393249937" fill="#000000" transform="translate(262.44546423286147 0) rotate(0)" stroke="none"/></g></g><g class="relationship"><g transform="translate(443.5936241772812 310.49935600597087) rotate(-157.544691382488)" stroke-width="5" stroke="#000000"><path d="M 59 0 L 237.5833136151131 0"/><polygon points="-24.8621506177483,0 -27.62461179749811,9.20820393249937 0,0 -27.62461179749811,-9.20820393249937" fill="#000000" transform="translate(262.4454642328614 0) rotate(0)" stroke="none"/></g></g><g class="relationship"><g transform="translate(443.5936241772812 310.49935600597087) rotate(-123.58889318091572)" stroke-width="5" stroke="#000000"><path d="M 59 0 L 237.5833136151131 0"/><polygon points="-24.8621506177483,0 -27.62461179749811,9.20820393249937 0,0 -27.62461179749811,-9.20820393249937" fill="#000000" transform="translate(262.4454642328614 0) rotate(0)" stroke="none"/></g></g><g class="relationship"><g transform="translate(443.5936241772812 310.49935600597087) rotate(68.56666913995433)" stroke-width="5" stroke="#f44e3b"><path d="M 58.695178092152055 -5.989663490593891 L 95.96898050729243 -9.793341079425122 A 40 40 0 0 1 100.02976931447472 -10 L 439.83213402145935 -10 L 779.6344987284439 -10 A 40 40 0 0 1 783.6952875356262 -9.793341079425124 L 796.2353889632642 -8.51366206436971 L 796.2353889632642 -8.51366206436971"/><polygon points="-24.8621506177483,0 -27.62461179749811,9.20820393249937 0,0 -27.62461179749811,-9.20820393249937" fill="#f44e3b" transform="translate(879.6642680429187 0) rotate(5.826689442008371) translate(-59 0)" stroke="none"/></g></g><g class="relationship"><g transform="translate(765.0390884101427 1129.3290318211577) rotate(-111.43333086004569)" stroke-width="5" stroke="#f44e3b"><path d="M 58.695178092152055 -5.989663490593891 L 95.96898050729243 -9.793341079425122 A 40 40 0 0 1 100.02976931447472 -10 L 439.83213402145935 -10 L 779.6344987284439 -10 A 40 40 0 0 1 783.6952875356262 -9.793341079425124 L 796.2353889632642 -8.51366206436971 L 796.2353889632642 -8.51366206436971"/><polygon points="-24.8621506177483,0 -27.62461179749811,9.20820393249937 0,0 -27.62461179749811,-9.20820393249937" fill="#f44e3b" transform="translate(879.6642680429187 0) rotate(5.826689442008371) translate(-59 0)" stroke="none"/></g></g><g class="relationship"><g transform="translate(443.5936241772812 310.49935600597087) rotate(-68.20133588822702)" stroke-width="5" stroke="#000000"><path d="M 59 0 L 230.73147355953287 0"/><polygon points="-24.8621506177483,0 -27.62461179749811,9.20820393249937 0,0 -27.62461179749811,-9.20820393249937" fill="#000000" transform="translate(255.59362417728119 0) rotate(0)" stroke="none"/></g></g><g class="relationship"><g transform="translate(443.5936241772812 310.49935600597087) rotate(-91.40267177645404)" stroke-width="5" stroke="#000000"><path d="M 59 0 L 230.731473559566 0"/><polygon points="-24.8621506177483,0 -27.62461179749811,9.20820393249937 0,0 -27.62461179749811,-9.20820393249937" fill="#000000" transform="translate(255.59362417731433 0) rotate(0)" stroke="none"/></g></g><g class="relationship"><g transform="translate(443.5936241772812 310.49935600597087) rotate(179.99999945074654)" stroke-width="5" stroke="#000000"><path d="M 59 0 L 230.73147355953287 0"/><polygon points="-24.8621506177483,0 -27.62461179749811,9.20820393249937 0,0 -27.62461179749811,-9.20820393249937" fill="#000000" transform="translate(255.59362417728119 0) rotate(0)" stroke="none"/></g></g><g class="relationship"><g transform="translate(443.5936241772812 310.49935600597087) rotate(157.54469138248805)" stroke-width="5" stroke="#000000"><path d="M 59 0 L 237.58331361511293 0"/><polygon points="-24.8621506177483,0 -27.62461179749811,9.20820393249937 0,0 -27.62461179749811,-9.20820393249937" fill="#000000" transform="translate(262.44546423286124 0) rotate(0)" stroke="none"/></g></g><g class="relationship"><g transform="translate(443.5936241772812 310.49935600597087) rotate(135.52263466996962)" stroke-width="5" stroke="#000000"><path d="M 59 0 L 237.58331361511316 0"/><polygon points="-24.8621506177483,0 -27.62461179749811,9.20820393249937 0,0 -27.62461179749811,-9.20820393249937" fill="#000000" transform="translate(262.44546423286147 0) rotate(0)" stroke="none"/></g></g><g class="relationship"><g transform="translate(443.5936241772812 310.49935600597087) rotate(111.798664111773)" stroke-width="5" stroke="#000000"><path d="M 59 0 L 230.73147355953213 0"/><polygon points="-24.8621506177483,0 -27.62461179749811,9.20820393249937 0,0 -27.62461179749811,-9.20820393249937" fill="#000000" transform="translate(255.59362417728045 0) rotate(0)" stroke="none"/></g></g><g class="relationship"><g transform="translate(765.0390884101427 1129.3290318211577) rotate(-135)" stroke-width="5" stroke="#000000"><path d="M 59 0 L 238.29033919209982 0"/><polygon points="-24.8621506177483,0 -27.62461179749811,9.20820393249937 0,0 -27.62461179749811,-9.20820393249937" fill="#000000" transform="translate(263.15248980984813 0) rotate(0)" stroke="none"/></g></g><g class="relationship"><g transform="translate(765.0390884101427 1129.3290318211577) rotate(156.80274241302175)" stroke-width="5" stroke="#000000"><path d="M 59 0 L 227.84340265650886 0"/><polygon points="-24.8621506177483,0 -27.62461179749811,9.20820393249937 0,0 -27.62461179749811,-9.20820393249937" fill="#000000" transform="translate(252.70555327425717 0) rotate(0)" stroke="none"/></g></g><g class="relationship"><g transform="translate(765.0390884101427 1129.3290318211577) rotate(180)" stroke-width="5" stroke="#000000"><path d="M 59 0 L 220.16419454657077 0"/><polygon points="-24.8621506177483,0 -27.62461179749811,9.20820393249937 0,0 -27.62461179749811,-9.20820393249937" fill="#000000" transform="translate(245.02634516431908 0) rotate(0)" stroke="none"/></g></g><g class="relationship"><g transform="translate(765.0390884101427 1129.3290318211577) rotate(-156.80274139396943)" stroke-width="5" stroke="#000000"><path d="M 59 0 L 227.8434050323298 0"/><polygon points="-24.8621506177483,0 -27.62461179749811,9.20820393249937 0,0 -27.62461179749811,-9.20820393249937" fill="#000000" transform="translate(252.7055556500781 0) rotate(0)" stroke="none"/></g></g><g class="relationship"><g transform="translate(765.0390884101427 1129.3290318211577) rotate(-89.47781000077036)" stroke-width="5" stroke="#000000"><path d="M 59 0 L 230.65027061322323 0"/><polygon points="-24.8621506177483,0 -27.62461179749811,9.20820393249937 0,0 -27.62461179749811,-9.20820393249937" fill="#000000" transform="translate(255.51242123097154 0) rotate(0)" stroke="none"/></g></g><g class="relationship"><g transform="translate(765.0390884101427 1129.3290318211577) rotate(-66.43694769676384)" stroke-width="5" stroke="#000000"><path d="M 59 0 L 234.80667906598924 0"/><polygon points="-24.8621506177483,0 -27.62461179749811,9.20820393249937 0,0 -27.62461179749811,-9.20820393249937" fill="#000000" transform="translate(259.66882968373756 0) rotate(0)" stroke="none"/></g></g><g class="relationship"><g transform="translate(765.0390884101427 1129.3290318211577) rotate(-43.67092912371418)" stroke-width="5" stroke="#000000"><path d="M 59 0 L 238.29033919209982 0"/><polygon points="-24.8621506177483,0 -27.62461179749811,9.20820393249937 0,0 -27.62461179749811,-9.20820393249937" fill="#000000" transform="translate(263.15248980984813 0) rotate(0)" stroke="none"/></g></g><g class="relationship"><g transform="translate(765.0390884101427 1129.3290318211577) rotate(9.243699500089642)" stroke-width="5" stroke="#000000"><path d="M 59 0 L 220.16419454657077 0"/><polygon points="-24.8621506177483,0 -27.62461179749811,9.20820393249937 0,0 -27.62461179749811,-9.20820393249937" fill="#000000" transform="translate(245.02634516431908 0) rotate(0)" stroke="none"/></g></g><g class="relationship"><g transform="translate(765.0390884101427 1129.3290318211577) rotate(-17.213614811812278)" stroke-width="5" stroke="#000000"><path d="M 59 0 L 238.29033919209982 0"/><polygon points="-24.8621506177483,0 -27.62461179749811,9.20820393249937 0,0 -27.62461179749811,-9.20820393249937" fill="#000000" transform="translate(263.15248980984813 0) rotate(0)" stroke="none"/></g></g><g class="relationship"><g transform="translate(765.0390884101427 1129.3290318211577) rotate(126.93221597078451)" stroke-width="5" stroke="#000000"><path d="M 59 0 L 220.1641945465707 0"/><polygon points="-24.8621506177483,0 -27.62461179749811,9.20820393249937 0,0 -27.62461179749811,-9.20820393249937" fill="#000000" transform="translate(245.02634516431903 0) rotate(0)" stroke="none"/></g></g><g class="relationship"><g transform="translate(1065.1173585724039 1178.1660089020402) rotate(-14.96386474662155)" stroke-width="5" stroke="#000000"><path d="M 59 0 L 105.27465305911538 0"/><polygon points="-24.8621506177483,0 -27.62461179749811,9.20820393249937 0,0 -27.62461179749811,-9.20820393249937" fill="#000000" transform="translate(130.13680367686368 0) rotate(0)" stroke="none"/></g></g><g class="relationship"><g transform="translate(1065.1173585724039 1178.1660089020402) rotate(23.013675839358072)" stroke-width="5" stroke="#000000"><path d="M 59 0 L 105.27465305911537 0"/><polygon points="-24.8621506177483,0 -27.62461179749811,9.20820393249937 0,0 -27.62461179749811,-9.20820393249937" fill="#000000" transform="translate(130.13680367686365 0) rotate(0)" stroke="none"/></g></g><g class="relationship"><g transform="translate(1065.1173585724039 1178.1660089020402) rotate(60.991216425337704)" stroke-width="5" stroke="#000000"><path d="M 59 0 L 105.27465305911309 0"/><polygon points="-24.8621506177483,0 -27.62461179749811,9.20820393249937 0,0 -27.62461179749811,-9.20820393249937" fill="#000000" transform="translate(130.13680367686138 0) rotate(0)" stroke="none"/></g></g><g class="relationship"><g transform="translate(1065.1173585724039 1178.1660089020402) rotate(98.96875701131735)" stroke-width="5" stroke="#000000"><path d="M 59 0 L 105.27465305911065 0"/><polygon points="-24.8621506177483,0 -27.62461179749811,9.20820393249937 0,0 -27.62461179749811,-9.20820393249937" fill="#000000" transform="translate(130.13680367685893 0) rotate(0)" stroke="none"/></g></g><g class="node"><g fill="#ffffff" stroke="#000000" stroke-width="4"><circle cx="443.5936241772812" cy="310.49935600597087" r="52"/></g><g transform="translate(443.5936241772812 310.49935600597087)"><g transform="scale(0.6427155762642839) translate(0 -27)"><g transform="translate(0 0)"><g transform="translate(-64.59999084472656 0)"><g fill="#ffffff" stroke="#000000" stroke-width="4"><rect x="0" y="0" width="129.19998168945312" height="54" rx="27" ry="27"/><text xml:space="preserve" x="27" y="38" stroke="none" font-family="sans-serif" font-size="40" font-weight="normal" fill="#000000">웹툰</text></g></g></g></g><g transform="translate(39.59797974644666 39.597979746446654)"><g transform="translate(0 0)"><g transform="translate(0 0)" fill="white"><rect x="0" y="0" width="1309.35888671875" height="134.4" rx="0" ry="0" stroke="none"/><g font-family="sans-serif" font-size="16" font-weight="normal" fill="#000000" text-anchor="end"><text xml:space="preserve" x="54.447967529296875" y="14.1" stroke="none">소개:</text><text xml:space="preserve" x="58.92796325683594" y="14.1" stroke="none" text-anchor="start">불합리한 세상 속, 고집과 객기로 뭉친 청춘들의 '힙'한 반란이 시작된다. 세계를 압축해 놓은 듯한 이태원. 이 작은 거리, 각자의 가치관으로 자유를 쫓는 그들의 창업 신화 &lt;이태원 클라쓰&gt;</text><text xml:space="preserve" x="54.447967529296875" y="33.3" stroke="none" text-anchor="end">평점:</text><text xml:space="preserve" x="58.92796325683594" y="33.3" stroke="none" text-anchor="start">9.9</text><text xml:space="preserve" x="54.447967529296875" y="52.5" stroke="none" text-anchor="end">조회수:</text><text xml:space="preserve" x="58.92796325683594" y="52.5" stroke="none" text-anchor="start">4억이상</text><text xml:space="preserve" x="54.447967529296875" y="71.7" stroke="none" text-anchor="end">제작사:</text><text xml:space="preserve" x="58.92796325683594" y="71.7" stroke="none" text-anchor="start">카카오페이지</text><text xml:space="preserve" x="54.447967529296875" y="90.89999999999999" stroke="none" text-anchor="end">회차수:</text><text xml:space="preserve" x="58.92796325683594" y="90.89999999999999" stroke="none" text-anchor="start">78</text><text xml:space="preserve" x="54.447967529296875" y="110.1" stroke="none" text-anchor="end">독자수:</text><text xml:space="preserve" x="58.92796325683594" y="110.1" stroke="none" text-anchor="start">null</text><text xml:space="preserve" x="54.447967529296875" y="129.3" stroke="none" text-anchor="end">연령가:</text><text xml:space="preserve" x="58.92796325683594" y="129.3" stroke="none" text-anchor="start">전체 이용가</text></g></g></g></g></g></g><g class="node"><g fill="#ffffff" stroke="#000000" stroke-width="4"><circle cx="666.0449091510889" cy="88.04807103216308" r="52"/></g><g transform="translate(666.0449091510889 88.04807103216308)"><g transform="scale(0.4404877897322126) translate(0 -59)"><g transform="translate(0 0)"><g fill="#000000" font-family="sans-serif" font-size="50" font-weight="normal" text-anchor="middle"><text xml:space="preserve" x="0" y="43.5" stroke="none">청춘</text></g></g><g transform="translate(0 64)"><g transform="translate(-83.39998626708984 0)"><g fill="#ffffff" stroke="#000000" stroke-width="4"><rect x="0" y="0" width="166.7999725341797" height="54" rx="27" ry="27"/><text xml:space="preserve" x="27" y="38" stroke="none" font-family="sans-serif" font-size="40" font-weight="normal" fill="#000000">키워드</text></g></g></g></g><g transform="translate(39.59797974644666 -58.79797974644666)"><g transform="translate(0 0)"><g transform="translate(0 0)" fill="white"><rect x="0" y="0" width="128.0479278564453" height="19.2" rx="0" ry="0" stroke="none"/><g font-family="sans-serif" font-size="16" font-weight="normal" fill="#000000" text-anchor="end"><text xml:space="preserve" x="89.00794982910156" y="14.1" stroke="none">키워드 유형:</text><text xml:space="preserve" x="93.48794555664062" y="14.1" stroke="none" text-anchor="start">배경</text></g></g></g></g></g></g><g class="node"><g fill="#ffffff" stroke="#000000" stroke-width="4"><circle cx="742.0539650454938" cy="191.13180847017634" r="52"/></g><g transform="translate(742.0539650454938 191.13180847017634)"><g transform="scale(0.286780431302754) translate(0 -59)"><g transform="translate(0 0)"><g fill="#000000" font-family="sans-serif" font-size="50" font-weight="normal" text-anchor="middle"><text xml:space="preserve" x="0" y="43.5" stroke="none">박새로이</text></g></g><g transform="translate(0 64)"><g transform="translate(-145.39997100830078 0)"><g fill="#ffffff" stroke="#000000" stroke-width="4"><rect x="0" y="0" width="290.79994201660156" height="54" rx="27" ry="27"/><text xml:space="preserve" x="27" y="38" stroke="none" font-family="sans-serif" font-size="40" font-weight="normal" fill="#000000">등장인물 이름</text></g></g></g></g><g transform="translate(56 -48)"><g transform="translate(0 0)"><g transform="translate(0 0)" fill="white"><rect x="0" y="0" width="143.08792114257812" height="96" rx="0" ry="0" stroke="none"/><g font-family="sans-serif" font-size="16" font-weight="normal" fill="#000000" text-anchor="end"><text xml:space="preserve" x="39.40797424316406" y="14.1" stroke="none">나이:</text><text xml:space="preserve" x="43.887969970703125" y="14.1" stroke="none" text-anchor="start">고등학생 이후</text><text xml:space="preserve" x="39.40797424316406" y="33.3" stroke="none" text-anchor="end">직업:</text><text xml:space="preserve" x="43.887969970703125" y="33.3" stroke="none" text-anchor="start">사업가</text><text xml:space="preserve" x="39.40797424316406" y="52.5" stroke="none" text-anchor="end">역할:</text><text xml:space="preserve" x="43.887969970703125" y="52.5" stroke="none" text-anchor="start">주인공</text><text xml:space="preserve" x="39.40797424316406" y="71.7" stroke="none" text-anchor="end">성별:</text><text xml:space="preserve" x="43.887969970703125" y="71.7" stroke="none" text-anchor="start">남</text><text xml:space="preserve" x="39.40797424316406" y="90.89999999999999" stroke="none" text-anchor="end">성격:</text><text xml:space="preserve" x="43.887969970703125" y="90.89999999999999" stroke="none" text-anchor="start">정의로움</text></g></g></g></g></g></g><g class="node"><g fill="#ffffff" stroke="#000000" stroke-width="4"><circle cx="765.0390884101427" cy="310.4993590217538" r="52"/></g><g transform="translate(765.0390884101427 310.4993590217538)"><g transform="scale(0.48949925967069957) translate(0 -59)"><g transform="translate(0 0)"><g fill="#000000" font-family="sans-serif" font-size="50" font-weight="normal" text-anchor="middle"><text xml:space="preserve" x="0" y="43.5" stroke="none">조광진</text></g></g><g transform="translate(0 64)"><g transform="translate(-64.59999084472656 0)"><g fill="#ffffff" stroke="#000000" stroke-width="4"><rect x="0" y="0" width="129.19998168945312" height="54" rx="27" ry="27"/><text xml:space="preserve" x="27" y="38" stroke="none" font-family="sans-serif" font-size="40" font-weight="normal" fill="#000000">작가</text></g></g></g></g><g transform="translate(56 -9.6)"><g transform="translate(0 0)"><g transform="translate(0 0)" fill="white"><rect x="0" y="0" width="113.0079345703125" height="19.2" rx="0" ry="0" stroke="none"/><g font-family="sans-serif" font-size="16" font-weight="normal" fill="#000000" text-anchor="end"><text xml:space="preserve" x="73.96795654296875" y="14.1" stroke="none">작가 유형:</text><text xml:space="preserve" x="78.44795227050781" y="14.1" stroke="none" text-anchor="start">작가</text></g></g></g></g></g></g><g class="node"><g fill="#ffffff" stroke="#000000" stroke-width="4"><circle cx="146.52087861293023" cy="187.71918529938569" r="52"/></g><g transform="translate(146.52087861293023 187.71918529938569)"><g transform="scale(0.48949925967069957) translate(0 -59)"><g transform="translate(0 0)"><g fill="#000000" font-family="sans-serif" font-size="50" font-weight="normal" text-anchor="middle"><text xml:space="preserve" x="0" y="43.5" stroke="none">화요일</text></g></g><g transform="translate(0 64)"><g transform="translate(-64.59999084472656 0)"><g fill="#ffffff" stroke="#000000" stroke-width="4"><rect x="0" y="0" width="129.19998168945312" height="54" rx="27" ry="27"/><text xml:space="preserve" x="27" y="38" stroke="none" font-family="sans-serif" font-size="40" font-weight="normal" fill="#000000">연재</text></g></g></g></g><g transform="translate(-56 -9.599999999999993)"><g transform="translate(0 0)"><g transform="translate(-128.0479278564453 0)" fill="white"><rect x="0" y="0" width="128.0479278564453" height="19.2" rx="0" ry="0" stroke="none"/><g font-family="sans-serif" font-size="16" font-weight="normal" fill="#000000" text-anchor="end"><text xml:space="preserve" x="73.96795654296875" y="14.1" stroke="none">연재 유형:</text><text xml:space="preserve" x="78.44795227050781" y="14.1" stroke="none" text-anchor="start">연재일</text></g></g></g></g></g></g><g class="node"><g fill="#ffffff" stroke="#000000" stroke-width="4"><circle cx="265.7603253783991" cy="42.726123000527764" r="52"/></g><g transform="translate(265.7603253783991 42.726123000527764)"><g transform="scale(0.41524848036655787) translate(0 -59)"><g transform="translate(0 0)"><g fill="#000000" font-family="sans-serif" font-size="50" font-weight="normal" text-anchor="middle"><text xml:space="preserve" x="0" y="43.5" stroke="none">유료</text></g></g><g transform="translate(0 64)"><g transform="translate(-90.89998626708984 0)"><g fill="#ffffff" stroke="#000000" stroke-width="4"><rect x="0" y="0" width="181.7999725341797" height="54" rx="27" ry="27"/><text xml:space="preserve" x="27" y="38" stroke="none" font-family="sans-serif" font-size="40" font-weight="normal" fill="#000000">유/무료</text></g></g></g></g><g transform="translate(-39.597979746446654 -58.79797974644666)"><g transform="translate(0 0)"><g transform="translate(-168.75192260742188 0)" fill="white"><rect x="0" y="0" width="168.75192260742188" height="19.2" rx="0" ry="0" stroke="none"/><g font-family="sans-serif" font-size="16" font-weight="normal" fill="#000000" text-anchor="end"><text xml:space="preserve" x="39.40797424316406" y="14.1" stroke="none">가격:</text><text xml:space="preserve" x="43.887969970703125" y="14.1" stroke="none" text-anchor="start">(대여)회당 180원</text></g></g></g></g></g></g><g class="node"><g fill="#ffffff" stroke="#000000" stroke-width="4"><circle cx="765.0390884101427" cy="1129.3290318211577" r="52"/></g><g transform="translate(765.0390884101427 1129.3290318211577)"><g transform="scale(0.5133375997076515) translate(0 -27)"><g transform="translate(0 0)"><g transform="translate(-83.39998626708984 0)"><g fill="#ffffff" stroke="#000000" stroke-width="4"><rect x="0" y="0" width="166.7999725341797" height="54" rx="27" ry="27"/><text xml:space="preserve" x="27" y="38" stroke="none" font-family="sans-serif" font-size="40" font-weight="normal" fill="#000000">드라마</text></g></g></g></g><g transform="translate(3.429011037612589e-15 56)"><g transform="translate(0 0)"><g transform="translate(-73.71996307373047 0)" fill="white"><rect x="0" y="0" width="147.43992614746094" height="115.19999999999999" rx="0" ry="0" stroke="none"/><g font-family="sans-serif" font-size="16" font-weight="normal" fill="#000000" text-anchor="end"><text xml:space="preserve" x="69.48796081542969" y="14.1" stroke="none">원작작가:</text><text xml:space="preserve" x="73.96795654296875" y="14.1" stroke="none" text-anchor="start">조광진</text><text xml:space="preserve" x="69.48796081542969" y="33.3" stroke="none" text-anchor="end">시청등급:</text><text xml:space="preserve" x="73.96795654296875" y="33.3" stroke="none" text-anchor="start">15세 이상</text><text xml:space="preserve" x="69.48796081542969" y="52.5" stroke="none" text-anchor="end">회차수:</text><text xml:space="preserve" x="73.96795654296875" y="52.5" stroke="none" text-anchor="start">16부작</text><text xml:space="preserve" x="69.48796081542969" y="71.7" stroke="none" text-anchor="end">시청률:</text><text xml:space="preserve" x="73.96795654296875" y="71.7" stroke="none" text-anchor="start">약 13%</text><text xml:space="preserve" x="69.48796081542969" y="90.89999999999999" stroke="none" text-anchor="end">평점:</text><text xml:space="preserve" x="73.96795654296875" y="90.89999999999999" stroke="none" text-anchor="start">8.3</text><text xml:space="preserve" x="69.48796081542969" y="110.1" stroke="none" text-anchor="end">배급사:</text><text xml:space="preserve" x="73.96795654296875" y="110.1" stroke="none" text-anchor="start">JTBC</text></g></g></g></g></g></g><g class="node"><g fill="#ffffff" stroke="#000000" stroke-width="4"><circle cx="560.4167670331276" cy="18.4009108435925" r="52"/></g><g transform="translate(560.4167670331276 18.4009108435925)"><g transform="scale(0.4404877897322126) translate(0 -59)"><g transform="translate(0 0)"><g fill="#000000" font-family="sans-serif" font-size="50" font-weight="normal" text-anchor="middle"><text xml:space="preserve" x="0" y="43.5" stroke="none">현대</text></g></g><g transform="translate(0 64)"><g transform="translate(-83.39998626708984 0)"><g fill="#ffffff" stroke="#000000" stroke-width="4"><rect x="0" y="0" width="166.7999725341797" height="54" rx="27" ry="27"/><text xml:space="preserve" x="27" y="38" stroke="none" font-family="sans-serif" font-size="40" font-weight="normal" fill="#000000">키워드</text></g></g></g></g><g transform="translate(3.429011037612589e-15 -75.2)"><g transform="translate(0 0)"><g transform="translate(-66.26396179199219 0)" fill="white"><rect x="0" y="0" width="132.52792358398438" height="19.2" rx="0" ry="0" stroke="none"/><g font-family="sans-serif" font-size="16" font-weight="normal" fill="#000000" text-anchor="end"><text xml:space="preserve" x="93.48794555664062" y="14.1" stroke="none">키워드 유형 :</text><text xml:space="preserve" x="97.96794128417969" y="14.1" stroke="none" text-anchor="start">시대</text></g></g></g></g></g></g><g class="node"><g fill="#ffffff" stroke="#000000" stroke-width="4"><circle cx="435.89275118476314" cy="-4" r="52"/></g><g transform="translate(435.89275118476314 -4)"><g transform="scale(0.3689447103295899) translate(0 -89)"><g transform="translate(0 0)"><g fill="#000000" font-family="sans-serif" font-size="50" font-weight="normal" text-anchor="middle"><text xml:space="preserve" x="0" y="43.5" stroke="none">드라마,</text><text xml:space="preserve" x="0" y="103.5" stroke="none" text-anchor="middle">복수</text></g></g><g transform="translate(0 124)"><g transform="translate(-83.39998626708984 0)"><g fill="#ffffff" stroke="#000000" stroke-width="4"><rect x="0" y="0" width="166.7999725341797" height="54" rx="27" ry="27"/><text xml:space="preserve" x="27" y="38" stroke="none" font-family="sans-serif" font-size="40" font-weight="normal" fill="#000000">키워드</text></g></g></g></g><g transform="translate(3.429011037612589e-15 -75.2)"><g transform="translate(0 0)"><g transform="translate(-64.02396392822266 0)" fill="white"><rect x="0" y="0" width="128.0479278564453" height="19.2" rx="0" ry="0" stroke="none"/><g font-family="sans-serif" font-size="16" font-weight="normal" fill="#000000" text-anchor="end"><text xml:space="preserve" x="89.00794982910156" y="14.1" stroke="none">키워드 유형:</text><text xml:space="preserve" x="93.48794555664062" y="14.1" stroke="none" text-anchor="start">장르</text></g></g></g></g></g></g><g class="node"><g fill="#ffffff" stroke="#000000" stroke-width="4"><circle cx="129" cy="310.4993590217538" r="52"/></g><g transform="translate(129 310.4993590217538)"><g transform="scale(0.514355963156334) translate(0 -59)"><g transform="translate(0 0)"><g fill="#000000" font-family="sans-serif" font-size="50" font-weight="normal" text-anchor="middle"><text xml:space="preserve" x="0" y="43.5" stroke="none">완결</text></g></g><g transform="translate(0 64)"><g transform="translate(-64.59999084472656 0)"><g fill="#ffffff" stroke="#000000" stroke-width="4"><rect x="0" y="0" width="129.19998168945312" height="54" rx="27" ry="27"/><text xml:space="preserve" x="27" y="38" stroke="none" font-family="sans-serif" font-size="40" font-weight="normal" fill="#000000">연재</text></g></g></g></g><g transform="translate(-56 -9.599999999999993)"><g transform="translate(0 0)"><g transform="translate(-147.5679168701172 0)" fill="white"><rect x="0" y="0" width="147.5679168701172" height="19.2" rx="0" ry="0" stroke="none"/><g font-family="sans-serif" font-size="16" font-weight="normal" fill="#000000" text-anchor="end"><text xml:space="preserve" x="73.96795654296875" y="14.1" stroke="none">연재 유형:</text><text xml:space="preserve" x="78.44795227050781" y="14.1" stroke="none" text-anchor="start">연재 상태</text></g></g></g></g></g></g><g class="node"><g fill="#ffffff" stroke="#000000" stroke-width="4"><circle cx="146.52087861293023" cy="433.2795267125556" r="52"/></g><g transform="translate(146.52087861293023 433.2795267125556)"><g transform="scale(0.4950521514510004) translate(0 -59)"><g transform="translate(0 0)"><g fill="#000000" font-family="sans-serif" font-size="50" font-weight="normal" text-anchor="middle"><text xml:space="preserve" x="0" y="43.5" stroke="none">주 1회</text></g></g><g transform="translate(0 64)"><g transform="translate(-64.59999084472656 0)"><g fill="#ffffff" stroke="#000000" stroke-width="4"><rect x="0" y="0" width="129.19998168945312" height="54" rx="27" ry="27"/><text xml:space="preserve" x="27" y="38" stroke="none" font-family="sans-serif" font-size="40" font-weight="normal" fill="#000000">연재</text></g></g></g></g><g transform="translate(-56 -9.599999999999993)"><g transform="translate(0 0)"><g transform="translate(-147.5679168701172 0)" fill="white"><rect x="0" y="0" width="147.5679168701172" height="19.2" rx="0" ry="0" stroke="none"/><g font-family="sans-serif" font-size="16" font-weight="normal" fill="#000000" text-anchor="end"><text xml:space="preserve" x="73.96795654296875" y="14.1" stroke="none">연재 유형:</text><text xml:space="preserve" x="78.44795227050781" y="14.1" stroke="none" text-anchor="start">연재 주기</text></g></g></g></g></g></g><g class="node"><g fill="#ffffff" stroke="#000000" stroke-width="4"><circle cx="214.23351405023698" cy="535.7128688296689" r="52"/></g><g transform="translate(214.23351405023698 535.7128688296689)"><g transform="scale(0.24495990215423466) translate(0 -119)"><g transform="translate(0 0)"><g fill="#000000" font-family="sans-serif" font-size="50" font-weight="normal" text-anchor="middle"><text xml:space="preserve" x="0" y="43.5" stroke="none">2016/12/27</text><text xml:space="preserve" x="0" y="103.5" stroke="none" text-anchor="middle">~</text><text xml:space="preserve" x="0" y="163.5" stroke="none" text-anchor="middle">2018/07/03</text></g></g><g transform="translate(0 184)"><g transform="translate(-64.59999084472656 0)"><g fill="#ffffff" stroke="#000000" stroke-width="4"><rect x="0" y="0" width="129.19998168945312" height="54" rx="27" ry="27"/><text xml:space="preserve" x="27" y="38" stroke="none" font-family="sans-serif" font-size="40" font-weight="normal" fill="#000000">연재</text></g></g></g></g><g transform="translate(-39.597979746446654 39.59797974644666)"><g transform="translate(0 0)"><g transform="translate(-143.08792114257812 0)" fill="white"><rect x="0" y="0" width="143.08792114257812" height="19.2" rx="0" ry="0" stroke="none"/><g font-family="sans-serif" font-size="16" font-weight="normal" fill="#000000" text-anchor="end"><text xml:space="preserve" x="73.96795654296875" y="14.1" stroke="none">연재 유형:</text><text xml:space="preserve" x="78.44795227050781" y="14.1" stroke="none" text-anchor="start">연재기간</text></g></g></g></g></g></g><g class="node"><g fill="#ffffff" stroke="#000000" stroke-width="4"><circle cx="326.770481321435" cy="602.5978011683485" r="52"/></g><g transform="translate(326.770481321435 602.5978011683485)"><g transform="scale(0.2944133534153844) translate(0 -59)"><g transform="translate(0 0)"><g fill="#000000" font-family="sans-serif" font-size="50" font-weight="normal" text-anchor="middle"><text xml:space="preserve" x="0" y="43.5" stroke="none">카카오페이지</text></g></g><g transform="translate(0 64)"><g transform="translate(-64.59999084472656 0)"><g fill="#ffffff" stroke="#000000" stroke-width="4"><rect x="0" y="0" width="129.19998168945312" height="54" rx="27" ry="27"/><text xml:space="preserve" x="27" y="38" stroke="none" font-family="sans-serif" font-size="40" font-weight="normal" fill="#000000">연재</text></g></g></g></g><g transform="translate(3.429011037612589e-15 56)"><g transform="translate(0 0)"><g transform="translate(-64.02396392822266 0)" fill="white"><rect x="0" y="0" width="128.0479278564453" height="19.2" rx="0" ry="0" stroke="none"/><g font-family="sans-serif" font-size="16" font-weight="normal" fill="#000000" text-anchor="end"><text xml:space="preserve" x="73.96795654296875" y="14.1" stroke="none">연재 유형:</text><text xml:space="preserve" x="78.44795227050781" y="14.1" stroke="none" text-anchor="start">연재처</text></g></g></g></g></g></g><g class="node"><g fill="#ffffff" stroke="#000000" stroke-width="4"><circle cx="998.0576523969127" cy="906.8777438315669" r="52"/></g><g transform="translate(998.0576523969127 906.8777438315669)"><g transform="scale(0.4404877897322126) translate(0 -59)"><g transform="translate(0 0)"><g fill="#000000" font-family="sans-serif" font-size="50" font-weight="normal" text-anchor="middle"><text xml:space="preserve" x="0" y="43.5" stroke="none">청춘</text></g></g><g transform="translate(0 64)"><g transform="translate(-83.39998626708984 0)"><g fill="#ffffff" stroke="#000000" stroke-width="4"><rect x="0" y="0" width="166.7999725341797" height="54" rx="27" ry="27"/><text xml:space="preserve" x="27" y="38" stroke="none" font-family="sans-serif" font-size="40" font-weight="normal" fill="#000000">키워드</text></g></g></g></g><g transform="translate(39.59797974644666 -58.79797974644666)"><g transform="translate(0 0)"><g transform="translate(0 0)" fill="white"><rect x="0" y="0" width="128.0479278564453" height="19.2" rx="0" ry="0" stroke="none"/><g font-family="sans-serif" font-size="16" font-weight="normal" fill="#000000" text-anchor="end"><text xml:space="preserve" x="89.00794982910156" y="14.1" stroke="none">키워드 유형:</text><text xml:space="preserve" x="93.48794555664062" y="14.1" stroke="none" text-anchor="start">배경</text></g></g></g></g></g></g><g class="node"><g fill="#ffffff" stroke="#000000" stroke-width="4"><circle cx="1065.1173585724039" cy="1178.1660089020402" r="52"/></g><g transform="translate(1065.1173585724039 1178.1660089020402)"><g transform="scale(0.5133375997076515) translate(0 -27)"><g transform="translate(0 0)"><g transform="translate(-83.39998626708984 0)"><g fill="#ffffff" stroke="#000000" stroke-width="4"><rect x="0" y="0" width="166.7999725341797" height="54" rx="27" ry="27"/><text xml:space="preserve" x="27" y="38" stroke="none" font-family="sans-serif" font-size="40" font-weight="normal" fill="#000000">출연진</text></g></g></g></g></g></g><g class="node"><g fill="#ffffff" stroke="#000000" stroke-width="4"><circle cx="1072.761745813275" cy="1033.9928224805365" r="52"/></g><g transform="translate(1072.761745813275 1033.9928224805365)"><g transform="scale(0.4404877897322126) translate(0 -59)"><g transform="translate(0 0)"><g fill="#000000" font-family="sans-serif" font-size="50" font-weight="normal" text-anchor="middle"><text xml:space="preserve" x="0" y="43.5" stroke="none">김성윤</text></g></g><g transform="translate(0 64)"><g transform="translate(-83.39998626708984 0)"><g fill="#ffffff" stroke="#000000" stroke-width="4"><rect x="0" y="0" width="166.7999725341797" height="54" rx="27" ry="27"/><text xml:space="preserve" x="27" y="38" stroke="none" font-family="sans-serif" font-size="40" font-weight="normal" fill="#000000">제작진</text></g></g></g></g><g transform="translate(56 -9.6)"><g transform="translate(0 0)"><g transform="translate(0 0)" fill="white"><rect x="0" y="0" width="78.44795227050781" height="19.2" rx="0" ry="0" stroke="none"/><g font-family="sans-serif" font-size="16" font-weight="normal" fill="#000000" text-anchor="end"><text xml:space="preserve" x="39.40797424316406" y="14.1" stroke="none">담당:</text><text xml:space="preserve" x="43.887969970703125" y="14.1" stroke="none" text-anchor="start">연출</text></g></g></g></g></g></g><g class="node"><g fill="#ffffff" stroke="#000000" stroke-width="4"><circle cx="478.5336218587537" cy="1006.5488580987897" r="52"/></g><g transform="translate(478.5336218587537 1006.5488580987897)"><g transform="scale(0.514355963156334) translate(0 -59)"><g transform="translate(0 0)"><g fill="#000000" font-family="sans-serif" font-size="50" font-weight="normal" text-anchor="middle"><text xml:space="preserve" x="0" y="43.5" stroke="none">금,토</text></g></g><g transform="translate(0 64)"><g transform="translate(-64.59999084472656 0)"><g fill="#ffffff" stroke="#000000" stroke-width="4"><rect x="0" y="0" width="129.19998168945312" height="54" rx="27" ry="27"/><text xml:space="preserve" x="27" y="38" stroke="none" font-family="sans-serif" font-size="40" font-weight="normal" fill="#000000">방송</text></g></g></g></g><g transform="translate(-39.597979746446654 -58.79797974644666)"><g transform="translate(0 0)"><g transform="translate(-113.0079345703125 0)" fill="white"><rect x="0" y="0" width="113.0079345703125" height="19.2" rx="0" ry="0" stroke="none"/><g font-family="sans-serif" font-size="16" font-weight="normal" fill="#000000" text-anchor="end"><text xml:space="preserve" x="73.96795654296875" y="14.1" stroke="none">방송 유형:</text><text xml:space="preserve" x="78.44795227050781" y="14.1" stroke="none" text-anchor="start">요일</text></g></g></g></g></g></g><g class="node"><g fill="#ffffff" stroke="#000000" stroke-width="4"><circle cx="892.4295102789509" cy="837.2305836429964" r="52"/></g><g transform="translate(892.4295102789509 837.2305836429964)"><g transform="scale(0.4404877897322126) translate(0 -59)"><g transform="translate(0 0)"><g fill="#000000" font-family="sans-serif" font-size="50" font-weight="normal" text-anchor="middle"><text xml:space="preserve" x="0" y="43.5" stroke="none">현대</text></g></g><g transform="translate(0 64)"><g transform="translate(-83.39998626708984 0)"><g fill="#ffffff" stroke="#000000" stroke-width="4"><rect x="0" y="0" width="166.7999725341797" height="54" rx="27" ry="27"/><text xml:space="preserve" x="27" y="38" stroke="none" font-family="sans-serif" font-size="40" font-weight="normal" fill="#000000">키워드</text></g></g></g></g><g transform="translate(39.59797974644666 -58.79797974644666)"><g transform="translate(0 0)"><g transform="translate(0 0)" fill="white"><rect x="0" y="0" width="132.52792358398438" height="19.2" rx="0" ry="0" stroke="none"/><g font-family="sans-serif" font-size="16" font-weight="normal" fill="#000000" text-anchor="end"><text xml:space="preserve" x="93.48794555664062" y="14.1" stroke="none">키워드 유형 :</text><text xml:space="preserve" x="97.96794128417969" y="14.1" stroke="none" text-anchor="start">시대</text></g></g></g></g></g></g><g class="node"><g fill="#ffffff" stroke="#000000" stroke-width="4"><circle cx="767.9054944305868" cy="814.8296727994039" r="52"/></g><g transform="translate(767.9054944305868 814.8296727994039)"><g transform="scale(0.3689447103295899) translate(0 -89)"><g transform="translate(0 0)"><g fill="#000000" font-family="sans-serif" font-size="50" font-weight="normal" text-anchor="middle"><text xml:space="preserve" x="0" y="43.5" stroke="none">드라마,</text><text xml:space="preserve" x="0" y="103.5" stroke="none" text-anchor="middle">복수</text></g></g><g transform="translate(0 124)"><g transform="translate(-83.39998626708984 0)"><g fill="#ffffff" stroke="#000000" stroke-width="4"><rect x="0" y="0" width="166.7999725341797" height="54" rx="27" ry="27"/><text xml:space="preserve" x="27" y="38" stroke="none" font-family="sans-serif" font-size="40" font-weight="normal" fill="#000000">키워드</text></g></g></g></g><g transform="translate(3.429011037612589e-15 -75.2)"><g transform="translate(0 0)"><g transform="translate(-64.02396392822266 0)" fill="white"><rect x="0" y="0" width="128.0479278564453" height="19.2" rx="0" ry="0" stroke="none"/><g font-family="sans-serif" font-size="16" font-weight="normal" fill="#000000" text-anchor="end"><text xml:space="preserve" x="89.00794982910156" y="14.1" stroke="none">키워드 유형:</text><text xml:space="preserve" x="93.48794555664062" y="14.1" stroke="none" text-anchor="start">장르</text></g></g></g></g></g></g><g class="node"><g fill="#ffffff" stroke="#000000" stroke-width="4"><circle cx="461.0127432458236" cy="1129.3290318211577" r="52"/></g><g transform="translate(461.0127432458236 1129.3290318211577)"><g transform="scale(0.274890096236106) translate(0 -59)"><g transform="translate(0 0)"><g fill="#000000" font-family="sans-serif" font-size="50" font-weight="normal" text-anchor="middle"><text xml:space="preserve" x="0" y="43.5" stroke="none">22:50~00:20</text></g></g><g transform="translate(0 64)"><g transform="translate(-64.59999084472656 0)"><g fill="#ffffff" stroke="#000000" stroke-width="4"><rect x="0" y="0" width="129.19998168945312" height="54" rx="27" ry="27"/><text xml:space="preserve" x="27" y="38" stroke="none" font-family="sans-serif" font-size="40" font-weight="normal" fill="#000000">방송</text></g></g></g></g><g transform="translate(-56 -9.599999999999993)"><g transform="translate(0 0)"><g transform="translate(-108.52793884277344 0)" fill="white"><rect x="0" y="0" width="108.52793884277344" height="19.2" rx="0" ry="0" stroke="none"/><g font-family="sans-serif" font-size="16" font-weight="normal" fill="#000000" text-anchor="end"><text xml:space="preserve" x="69.48796081542969" y="14.1" stroke="none">방송유형:</text><text xml:space="preserve" x="73.96795654296875" y="14.1" stroke="none" text-anchor="start">시간</text></g></g></g></g></g></g><g class="node"><g fill="#ffffff" stroke="#000000" stroke-width="4"><circle cx="478.5336218587537" cy="1252.1091995119607" r="52"/></g><g transform="translate(478.5336218587537 1252.1091995119607)"><g transform="scale(0.514355963156334) translate(0 -59)"><g transform="translate(0 0)"><g fill="#000000" font-family="sans-serif" font-size="50" font-weight="normal" text-anchor="middle"><text xml:space="preserve" x="0" y="43.5" stroke="none">종영</text></g></g><g transform="translate(0 64)"><g transform="translate(-64.59999084472656 0)"><g fill="#ffffff" stroke="#000000" stroke-width="4"><rect x="0" y="0" width="129.19998168945312" height="54" rx="27" ry="27"/><text xml:space="preserve" x="27" y="38" stroke="none" font-family="sans-serif" font-size="40" font-weight="normal" fill="#000000">방송</text></g></g></g></g><g transform="translate(-39.597979746446654 39.59797974644666)"><g transform="translate(0 0)"><g transform="translate(-113.0079345703125 0)" fill="white"><rect x="0" y="0" width="113.0079345703125" height="19.2" rx="0" ry="0" stroke="none"/><g font-family="sans-serif" font-size="16" font-weight="normal" fill="#000000" text-anchor="end"><text xml:space="preserve" x="73.96795654296875" y="14.1" stroke="none">방송 유형:</text><text xml:space="preserve" x="78.44795227050781" y="14.1" stroke="none" text-anchor="start">상태</text></g></g></g></g></g></g><g class="node"><g fill="#ffffff" stroke="#000000" stroke-width="4"><circle cx="537.2428782894689" cy="901.532821700484" r="52"/></g><g transform="translate(537.2428782894689 901.532821700484)"><g transform="scale(0.24495990215423466) translate(0 -119)"><g transform="translate(0 0)"><g fill="#000000" font-family="sans-serif" font-size="50" font-weight="normal" text-anchor="middle"><text xml:space="preserve" x="0" y="43.5" stroke="none">2020/01/31</text><text xml:space="preserve" x="0" y="103.5" stroke="none" text-anchor="middle">~</text><text xml:space="preserve" x="0" y="163.5" stroke="none" text-anchor="middle">2020/03/21</text></g></g><g transform="translate(0 184)"><g transform="translate(-64.59999084472656 0)"><g fill="#ffffff" stroke="#000000" stroke-width="4"><rect x="0" y="0" width="129.19998168945312" height="54" rx="27" ry="27"/><text xml:space="preserve" x="27" y="38" stroke="none" font-family="sans-serif" font-size="40" font-weight="normal" fill="#000000">방송</text></g></g></g></g><g transform="translate(-39.597979746446654 -58.79797974644666)"><g transform="translate(0 0)"><g transform="translate(-113.0079345703125 0)" fill="white"><rect x="0" y="0" width="113.0079345703125" height="19.2" rx="0" ry="0" stroke="none"/><g font-family="sans-serif" font-size="16" font-weight="normal" fill="#000000" text-anchor="end"><text xml:space="preserve" x="73.96795654296875" y="14.1" stroke="none">방송 유형:</text><text xml:space="preserve" x="78.44795227050781" y="14.1" stroke="none" text-anchor="start">기간</text></g></g></g></g></g></g><g class="node"><g fill="#ffffff" stroke="#000000" stroke-width="4"><circle cx="582.3588474384223" cy="1372.3515577575158" r="52"/></g><g transform="translate(582.3588474384223 1372.3515577575158)"><g transform="scale(0.5146165279472417) translate(0 -59)"><g transform="translate(0 0)"><g fill="#000000" font-family="sans-serif" font-size="50" font-weight="normal" text-anchor="middle"><text xml:space="preserve" x="0" y="43.5" stroke="none">시작</text></g></g><g transform="translate(0 64)"><g transform="translate(-64.53998565673828 0)"><g fill="#ffffff" stroke="#000000" stroke-width="4"><rect x="0" y="0" width="129.07997131347656" height="54" rx="27" ry="27"/><text xml:space="preserve" x="27" y="38" stroke="none" font-family="sans-serif" font-size="40" font-weight="normal" fill="#000000">OST</text></g></g></g></g><g transform="translate(-39.597979746446654 39.59797974644666)"><g transform="translate(0 0)"><g transform="translate(-152.9759521484375 0)" fill="white"><rect x="0" y="0" width="152.9759521484375" height="57.599999999999994" rx="0" ry="0" stroke="none"/><g font-family="sans-serif" font-size="16" font-weight="normal" fill="#000000" text-anchor="end"><text xml:space="preserve" x="54.447967529296875" y="14.1" stroke="none">가수:</text><text xml:space="preserve" x="58.92796325683594" y="14.1" stroke="none" text-anchor="start">가호</text><text xml:space="preserve" x="54.447967529296875" y="33.3" stroke="none" text-anchor="end">작곡가:</text><text xml:space="preserve" x="58.92796325683594" y="33.3" stroke="none" text-anchor="start">박성일</text><text xml:space="preserve" x="54.447967529296875" y="52.5" stroke="none" text-anchor="end">발매일:</text><text xml:space="preserve" x="58.92796325683594" y="52.5" stroke="none" text-anchor="start">2020/02/01</text></g></g></g></g></g></g><g class="node"><g fill="#ffffff" stroke="#000000" stroke-width="4"><circle cx="1247.8403187462743" cy="1129.3290318211577" r="52"/></g><g transform="translate(1247.8403187462743 1129.3290318211577)"><g transform="scale(0.38133078862505704) translate(0 -59)"><g transform="translate(0 0)"><g fill="#000000" font-family="sans-serif" font-size="50" font-weight="normal" text-anchor="middle"><text xml:space="preserve" x="0" y="43.5" stroke="none">박서준</text></g></g><g transform="translate(0 64)"><g transform="translate(-102.19998168945312 0)"><g fill="#ffffff" stroke="#000000" stroke-width="4"><rect x="0" y="0" width="204.39996337890625" height="54" rx="27" ry="27"/><text xml:space="preserve" x="27" y="38" stroke="none" font-family="sans-serif" font-size="40" font-weight="normal" fill="#000000">박새로이</text></g></g></g></g></g></g><g class="node"><g fill="#ffffff" stroke="#000000" stroke-width="4"><circle cx="1239.201059898879" cy="1252.1091995119607" r="52"/></g><g transform="translate(1239.201059898879 1252.1091995119607)"><g transform="scale(0.4404877897322126) translate(0 -59)"><g transform="translate(0 0)"><g fill="#000000" font-family="sans-serif" font-size="50" font-weight="normal" text-anchor="middle"><text xml:space="preserve" x="0" y="43.5" stroke="none">김다미</text></g></g><g transform="translate(0 64)"><g transform="translate(-83.39998626708984 0)"><g fill="#ffffff" stroke="#000000" stroke-width="4"><rect x="0" y="0" width="166.7999725341797" height="54" rx="27" ry="27"/><text xml:space="preserve" x="27" y="38" stroke="none" font-family="sans-serif" font-size="40" font-weight="normal" fill="#000000">조이서</text></g></g></g></g></g></g><g class="node"><g fill="#ffffff" stroke="#000000" stroke-width="4"><circle cx="1156.8380591516664" cy="1343.5747256927489" r="52"/></g><g transform="translate(1156.8380591516664 1343.5747256927489)"><g transform="scale(0.4404877897322126) translate(0 -59)"><g transform="translate(0 0)"><g fill="#000000" font-family="sans-serif" font-size="50" font-weight="normal" text-anchor="middle"><text xml:space="preserve" x="0" y="43.5" stroke="none">유재명</text></g></g><g transform="translate(0 64)"><g transform="translate(-83.39998626708984 0)"><g fill="#ffffff" stroke="#000000" stroke-width="4"><rect x="0" y="0" width="166.7999725341797" height="54" rx="27" ry="27"/><text xml:space="preserve" x="27" y="38" stroke="none" font-family="sans-serif" font-size="40" font-weight="normal" fill="#000000">장대희</text></g></g></g></g></g></g><g class="node"><g fill="#ffffff" stroke="#000000" stroke-width="4"><circle cx="1035.6317134798528" cy="1364.9903307623772" r="52"/></g><g transform="translate(1035.6317134798528 1364.9903307623772)"><g transform="scale(0.4404877897322126) translate(0 -59)"><g transform="translate(0 0)"><g fill="#000000" font-family="sans-serif" font-size="50" font-weight="normal" text-anchor="middle"><text xml:space="preserve" x="0" y="43.5" stroke="none">오수아</text></g></g><g transform="translate(0 64)"><g transform="translate(-83.39998626708984 0)"><g fill="#ffffff" stroke="#000000" stroke-width="4"><rect x="0" y="0" width="166.7999725341797" height="54" rx="27" ry="27"/><text xml:space="preserve" x="27" y="38" stroke="none" font-family="sans-serif" font-size="40" font-weight="normal" fill="#000000">권나라</text></g></g></g></g></g></g></g></svg>